<svg width="1200" height="1540" viewBox="0 0 1200 1540" fill="none" xmlns="http://www.w3.org/2000/svg"><defs><linearGradient id="bg" x1="0" y1="0" x2="1200" y2="1540"><stop stop-color="#030305"/><stop offset="1" stop-color="#07050B"/></linearGradient><linearGradient id="p" x1="0" y1="0" x2="1" y2="1"><stop stop-color="#C084FC"/><stop offset="1" stop-color="#7C3AED"/></linearGradient><style>.t{font-family:Arial,Helvetica,sans-serif;fill:#F4F4F5}.m{font-family:Arial,Helvetica,sans-serif;fill:#A1A1AA}.mono{font-family:monospace}.card{fill:#090A0D;stroke:#30333A;stroke-width:1.5}.purple{fill:#A855F7}.green{fill:#9BE564}</style></defs><rect width="1200" height="1540" fill="url(#bg)"/><rect x="18" y="18" width="1164" height="270" rx="18" fill="#08070C" stroke="#393044"/><circle cx="1030" cy="85" r="150" fill="#6D28D9" opacity=".13"/><circle cx="1120" cy="180" r="95" fill="#A855F7" opacity=".09"/><path d="M70 153L120 103L141 124L112 153L141 182L120 203L70 153Z" fill="#7C3AED"/><path d="M245 103L295 153L245 203L224 182L253 153L224 124L245 103Z" fill="#7C3AED"/><path d="M141 92L181 140L222 92V214H191V161L181 173L171 161V214H141V92Z" fill="#F7F7F8"/><path d="M181 173L217 137L238 158L181 215L148 182L169 161L181 173Z" fill="url(#p)"/><text x="350" y="112" class="t" font-size="58" font-weight="800" letter-spacing="3">MIGUEL</text><text x="350" y="178" font-family="Arial" font-size="58" font-weight="800" fill="url(#p)" letter-spacing="5">OLIVEIRA</text><text x="352" y="218" class="t" font-size="20" font-weight="700" letter-spacing="5">DESENVOLVEDOR FULL STACK</text><text x="352" y="252" class="m mono" font-size="17">Código  •  Lógica  •  Inovação  •  Impacto</text><rect x="910" y="91" width="205" height="118" rx="9" fill="#050507" stroke="#5B21B6"/><rect x="928" y="108" width="170" height="76" rx="5" fill="#0C0B10"/><path d="M944 128H1005M944 149H1070M944 170H1025" stroke="#A855F7" stroke-width="5" stroke-linecap="round"/><rect x="965" y="209" width="92" height="7" rx="3.5" fill="#7C3AED"/><rect x="18" y="306" width="560" height="430" rx="14" class="card"/><rect x="18" y="306" width="560" height="48" rx="14" fill="#0C0D11"/><circle cx="42" cy="330" r="8" fill="#EF4444"/><circle cx="68" cy="330" r="8" fill="#FACC15"/><circle cx="94" cy="330" r="8" fill="#22C55E"/><text x="142" y="336" class="m mono" font-size="18">about.me</text><text x="510" y="337" class="t mono" font-size="20">&gt;_</text><g class="mono" font-size="17"><text x="40" y="390" class="t">{</text><text x="62" y="422" fill="#C084FC">"nome": <tspan class="green">"Miguel Oliveira"</tspan>,</text><text x="62" y="454" fill="#C084FC">"cargo": <tspan class="green">"Desenvolvedor Full Stack"</tspan>,</text><text x="62" y="486" fill="#C084FC">"foco": <tspan class="green">"Aplicações escaláveis"</tspan>,</text><text x="127" y="515" class="green">"Automação, IA e soluções web"</text><text x="62" y="547" fill="#C084FC">"localizacao": <tspan class="green">"Taubaté, SP - Brasil"</tspan>,</text><text x="62" y="579" fill="#C084FC">"formacao": <tspan class="green">"Análise e Desenvolvimento"</tspan></text><text x="127" y="608" class="green">"de Sistemas"</text><text x="62" y="640" fill="#C084FC">"objetivo": <tspan class="green">"Transformar ideias em impacto"</tspan>,</text><text x="62" y="672" fill="#C084FC">"status": <tspan class="green">"Sempre aprendendo 🚀"</tspan></text><text x="40" y="704" class="t">}</text></g><rect x="596" y="306" width="586" height="205" rx="14" class="card"/><circle cx="635" cy="350" r="21" fill="none" stroke="#A855F7" stroke-width="3"/><circle cx="635" cy="345" r="7" fill="none" stroke="#A855F7" stroke-width="3"/><path d="M619 365C625 353 645 353 651 365" stroke="#A855F7" stroke-width="3" fill="none"/><text x="675" y="348" class="purple t" font-size="19" font-weight="700">SOBRE MIM</text><text x="675" y="382" class="t" font-size="18">Apaixonado por tecnologia e desenvolvimento, sempre</text><text x="675" y="410" class="t" font-size="18">buscando aprender, inovar e criar soluções que</text><text x="675" y="438" class="t" font-size="18">resolvem problemas do mundo real.</text><text x="675" y="476" class="m" font-size="16">Código limpo • Automação • IA • Backend • Full Stack</text><rect x="596" y="529" width="586" height="207" rx="14" class="card"/><line x1="889" y1="546" x2="889" y2="717" stroke="#333"/><line x1="613" y1="630" x2="1165" y2="630" stroke="#333"/><text x="635" y="582" class="purple" font-family="Arial" font-size="34">⌘</text><text x="688" y="579" class="t" font-size="25" font-weight="700">6</text><text x="688" y="603" class="m" font-size="15">Projetos em destaque</text><text x="930" y="582" class="purple" font-family="Arial" font-size="34">★</text><text x="982" y="579" class="t" font-size="25" font-weight="700">IA</text><text x="982" y="603" class="m" font-size="15">Automação aplicada</text><text x="635" y="682" class="purple" font-family="Arial" font-size="34">⌁</text><text x="688" y="679" class="t" font-size="25" font-weight="700">ADS</text><text x="688" y="703" class="m" font-size="15">Formação em andamento</text><text x="930" y="682" class="purple" font-family="Arial" font-size="34">♜</text><text x="982" y="679" class="t" font-size="25" font-weight="700">Qualidade</text><text x="982" y="703" class="m" font-size="15">Código limpo e eficiente</text><rect x="18" y="754" width="1164" height="185" rx="14" class="card"/><text x="38" y="790" class="t" font-size="23" font-weight="700">🛠  TECNOLOGIAS E FERRAMENTAS</text><rect x="38" y="812" width="174" height="49" rx="9" fill="#0D0E12" stroke="#353740"/><text x="56" y="843" class="purple" font-family="Arial" font-size="16" font-weight="700">PY</text><text x="96" y="843" class="t" font-size="17">Python</text><rect x="224" y="812" width="174" height="49" rx="9" fill="#0D0E12" stroke="#353740"/><text x="242" y="843" class="purple" font-family="Arial" font-size="16" font-weight="700">JS</text><text x="282" y="843" class="t" font-size="17">JavaScript</text><rect x="410" y="812" width="174" height="49" rx="9" fill="#0D0E12" stroke="#353740"/><text x="428" y="843" class="purple" font-family="Arial" font-size="16" font-weight="700">C#</text><text x="468" y="843" class="t" font-size="17">C#</text><rect x="596" y="812" width="174" height="49" rx="9" fill="#0D0E12" stroke="#353740"/><text x="614" y="843" class="purple" font-family="Arial" font-size="16" font-weight="700">H5</text><text x="654" y="843" class="t" font-size="17">HTML5</text><rect x="782" y="812" width="174" height="49" rx="9" fill="#0D0E12" stroke="#353740"/><text x="800" y="843" class="purple" font-family="Arial" font-size="16" font-weight="700">C3</text><text x="840" y="843" class="t" font-size="17">CSS3</text><rect x="968" y="812" width="174" height="49" rx="9" fill="#0D0E12" stroke="#353740"/><text x="986" y="843" class="purple" font-family="Arial" font-size="16" font-weight="700">DB</text><text x="1026" y="843" class="t" font-size="17">SQL</text><rect x="38" y="873" width="174" height="49" rx="9" fill="#0D0E12" stroke="#353740"/><text x="56" y="904" class="purple" font-family="Arial" font-size="16" font-weight="700">GT</text><text x="96" y="904" class="t" font-size="17">Git</text><rect x="224" y="873" width="174" height="49" rx="9" fill="#0D0E12" stroke="#353740"/><text x="242" y="904" class="purple" font-family="Arial" font-size="16" font-weight="700">GH</text><text x="282" y="904" class="t" font-size="17">GitHub</text><rect x="410" y="873" width="174" height="49" rx="9" fill="#0D0E12" stroke="#353740"/><text x="428" y="904" class="purple" font-family="Arial" font-size="16" font-weight="700">VS</text><text x="468" y="904" class="t" font-size="17">VS Code</text><rect x="596" y="873" width="174" height="49" rx="9" fill="#0D0E12" stroke="#353740"/><text x="614" y="904" class="purple" font-family="Arial" font-size="16" font-weight="700">SB</text><text x="654" y="904" class="t" font-size="17">Supabase</text><rect x="782" y="873" width="174" height="49" rx="9" fill="#0D0E12" stroke="#353740"/><text x="800" y="904" class="purple" font-family="Arial" font-size="16" font-weight="700">n8n</text><text x="840" y="904" class="t" font-size="17">n8n</text><rect x="968" y="873" width="174" height="49" rx="9" fill="#0D0E12" stroke="#353740"/><text x="986" y="904" class="purple" font-family="Arial" font-size="16" font-weight="700">▲</text><text x="1026" y="904" class="t" font-size="17">Vercel</text><rect x="18" y="958" width="1164" height="340" rx="14" class="card"/><text x="38" y="996" class="t" font-size="23" font-weight="700">🚀  PROJETOS EM DESTAQUE</text><rect x="36" y="1014" width="542" height="80" rx="9" fill="#0B0C10" stroke="#6D28D9"/><text x="56" y="1041" class="purple t" font-size="18" font-weight="700">PersonalHub</text><text x="56" y="1064" class="t" font-size="14">Ecossistema para Finanças, Estudos, Tarefas e IA.</text><text x="56" y="1083" fill="#C084FC" font-family="monospace" font-size="12">personalhub.sbs</text><rect x="604" y="1014" width="542" height="80" rx="9" fill="#0B0C10" stroke="#6D28D9"/><text x="624" y="1041" class="purple t" font-size="18" font-weight="700">GSPlan</text><text x="624" y="1064" class="t" font-size="14">Gestão Patrimonial para assessores de elite.</text><text x="624" y="1083" fill="#C084FC" font-family="monospace" font-size="12">gsplan.company</text><rect x="36" y="1107" width="542" height="80" rx="9" fill="#0B0C10" stroke="#6D28D9"/><text x="56" y="1134" class="purple t" font-size="18" font-weight="700">Vyzor</text><text x="56" y="1157" class="t" font-size="14">Gerenciamento automático de dados empresariais.</text><text x="56" y="1176" fill="#C084FC" font-family="monospace" font-size="12">github.com/miguelsenai2024/Vyzor</text><rect x="604" y="1107" width="542" height="80" rx="9" fill="#0B0C10" stroke="#6D28D9"/><text x="624" y="1134" class="purple t" font-size="18" font-weight="700">ReAlimenta</text><text x="624" y="1157" class="t" font-size="14">Combate ao desperdício conectando doadores e ONGs.</text><text x="624" y="1176" fill="#C084FC" font-family="monospace" font-size="12">github.com/Miguelsenai2024/ReAlimenta-Public</text><rect x="36" y="1200" width="542" height="80" rx="9" fill="#0B0C10" stroke="#6D28D9"/><text x="56" y="1227" class="purple t" font-size="18" font-weight="700">ScopeMaster</text><text x="56" y="1250" class="t" font-size="14">Gerenciamento de requisitos e propostas.</text><text x="56" y="1269" fill="#C084FC" font-family="monospace" font-size="12">scope-master-alpha.vercel.app</text><rect x="604" y="1200" width="542" height="80" rx="9" fill="#0B0C10" stroke="#6D28D9"/><text x="624" y="1227" class="purple t" font-size="18" font-weight="700">Telegram Mini App — Vendas com IA</text><text x="624" y="1250" class="t" font-size="14">n8n + Supabase + Gemini/Groq + Telegram.</text><text x="624" y="1269" fill="#C084FC" font-family="monospace" font-size="12">github.com/miguelsenai2024/telegram-miniapp-vendas-ia</text><rect x="18" y="1317" width="1164" height="150" rx="14" class="card"/><text x="38" y="1353" class="t" font-size="23" font-weight="700">📊  GITHUB + CONTATO</text><rect x="38" y="1373" width="260" height="72" rx="9" fill="#0B0C10" stroke="#34363E"/><text x="58" y="1401" class="t" font-size="17" font-weight="700">Miguel Oliveira</text><text x="58" y="1427" class="m mono" font-size="14">@miguelsenai2024</text><rect x="315" y="1373" width="260" height="72" rx="9" fill="#0B0C10" stroke="#34363E"/><text x="335" y="1401" class="t" font-size="17" font-weight="700">Stack principal</text><text x="335" y="1427" class="m" font-size="14">Python • JS • C# • SQL</text><rect x="592" y="1373" width="270" height="72" rx="9" fill="#0B0C10" stroke="#34363E"/><text x="612" y="1401" class="t" font-size="17" font-weight="700">Portfólio</text><text x="612" y="1427" fill="#C084FC" font-family="monospace" font-size="13">curriculo-ten-hazel.vercel.app</text><rect x="879" y="1373" width="284" height="72" rx="9" fill="#0B0C10" stroke="#34363E"/><text x="899" y="1401" class="t" font-size="17" font-weight="700">Vamos nos conectar</text><text x="899" y="1427" class="m" font-size="14">LinkedIn • Instagram • Gmail</text><text x="600" y="1510" text-anchor="middle" class="m mono" font-size="14">Código • Tecnologia • Inovação • Impacto</text></svg>